<svg xmlns="http://www.w3.org/2000/svg" width="107.733" height="63.427" viewBox="0 0 107.733 63.427">
  <g id="logo-footer" transform="translate(-117.743 -131.998)">
    <g id="Group_18" data-name="Group 18" transform="translate(117.743 146.93)">
      <g id="Group_17" data-name="Group 17" transform="translate(60.019 0)">
        <g id="Group_16" data-name="Group 16">
          <g id="Group_15" data-name="Group 15">
            <g id="Group_14" data-name="Group 14">
              <g id="Group_13" data-name="Group 13">
                <path id="Path_47" data-name="Path 47" d="M284.383,167.507a34.755,34.755,0,0,0-3.243-5.852,34.349,34.349,0,0,0-3.243,5.852,22.3,22.3,0,0,1,3.243,4.424,22.081,22.081,0,0,1,3.243-4.424" transform="translate(-257.281 -161.655)" fill="#018837"/>
                <path id="Path_48" data-name="Path 48" d="M277.9,241.989a34.357,34.357,0,0,0,3.243,5.851,34.745,34.745,0,0,0,3.243-5.851,22.161,22.161,0,0,1-3.243-4.425,22.4,22.4,0,0,1-3.243,4.425" transform="translate(-257.281 -199.345)" fill="#018837"/>
                <path id="Path_49" data-name="Path 49" d="M271.893,168.95a34.3,34.3,0,0,0-5.043-4.39,34.375,34.375,0,0,0-1.045,6.61,22.4,22.4,0,0,1,4.556,3.045,22.384,22.384,0,0,1,1.532-5.265" transform="translate(-251.278 -163.097)" fill="#018837"/>
                <path id="Path_50" data-name="Path 50" d="M290.779,241.158a34.3,34.3,0,0,0,5.043,4.39,34.706,34.706,0,0,0,1.044-6.607,22.5,22.5,0,0,1-4.557-3.05,22.5,22.5,0,0,1-1.531,5.267" transform="translate(-263.678 -198.515)" fill="#018837"/>
                <path id="Path_51" data-name="Path 51" d="M259.651,175.321a34.632,34.632,0,0,0-6.24-2.4,34.278,34.278,0,0,0,1.277,6.571,22.18,22.18,0,0,1,5.321,1.3,22.177,22.177,0,0,1-.358-5.472" transform="translate(-245.124 -167.248)" fill="#018837"/>
                <path id="Path_52" data-name="Path 52" d="M302.514,236.545a34.407,34.407,0,0,0,6.24,2.4,34.243,34.243,0,0,0-1.277-6.568,22.174,22.174,0,0,1-5.323-1.307,22.225,22.225,0,0,1,.36,5.48" transform="translate(-269.325 -196.118)" fill="#018837"/>
                <path id="Path_53" data-name="Path 53" d="M251.559,190.765a22.506,22.506,0,0,1-2.205-5.02,34.162,34.162,0,0,0-6.685-.118,34.616,34.616,0,0,0,3.441,5.735,22.261,22.261,0,0,1,5.45-.6" transform="translate(-239.79 -173.502)" fill="#018837"/>
                <path id="Path_54" data-name="Path 54" d="M308.34,223.1a22.077,22.077,0,0,1,2.209,5.02,34.683,34.683,0,0,0,6.686.12,34.257,34.257,0,0,0-3.444-5.739,22.263,22.263,0,0,1-5.451.6" transform="translate(-272.397 -191.866)" fill="#018837"/>
                <path id="Path_55" data-name="Path 55" d="M243.271,197.127a34.284,34.284,0,0,0-6.32,2.178,34.7,34.7,0,0,0,5.2,4.211,22.232,22.232,0,0,1,4.916-2.426,22.525,22.525,0,0,1-3.793-3.962" transform="translate(-236.951 -179.267)" fill="#018837"/>
                <path id="Path_56" data-name="Path 56" d="M316.551,209.815a22.142,22.142,0,0,1-4.913,2.427,22.259,22.259,0,0,1,3.791,3.96,34.1,34.1,0,0,0,6.319-2.176,34.137,34.137,0,0,0-5.2-4.211" transform="translate(-274.034 -185.567)" fill="#018837"/>
                <path id="Path_57" data-name="Path 57" d="M247.063,212.241a22.12,22.12,0,0,1-4.915-2.427,34.453,34.453,0,0,0-5.2,4.212,34.253,34.253,0,0,0,6.319,2.176,22.4,22.4,0,0,1,3.793-3.96" transform="translate(-236.951 -185.567)" fill="#018837"/>
                <path id="Path_58" data-name="Path 58" d="M311.638,201.089a22.274,22.274,0,0,1,4.913,2.426,34.347,34.347,0,0,0,5.2-4.211,34.06,34.06,0,0,0-6.319-2.178,22.369,22.369,0,0,1-3.791,3.962" transform="translate(-274.034 -179.267)" fill="#018837"/>
                <path id="Path_59" data-name="Path 59" d="M246.11,222.5a34.452,34.452,0,0,0-3.441,5.74,34.629,34.629,0,0,0,6.685-.12,22.5,22.5,0,0,1,2.205-5.02,22.235,22.235,0,0,1-5.45-.6" transform="translate(-239.79 -191.866)" fill="#018837"/>
                <path id="Path_60" data-name="Path 60" d="M313.792,191.362a34.421,34.421,0,0,0,3.443-5.739,34.6,34.6,0,0,0-6.687.122,22.034,22.034,0,0,1-2.208,5.02,22.268,22.268,0,0,1,5.451.6" transform="translate(-272.397 -173.502)" fill="#018837"/>
                <path id="Path_61" data-name="Path 61" d="M260.01,231.066a22.267,22.267,0,0,1-5.321,1.307,34.218,34.218,0,0,0-1.276,6.569,34.535,34.535,0,0,0,6.24-2.4,22.212,22.212,0,0,1,.358-5.479" transform="translate(-245.124 -196.119)" fill="#018837"/>
                <path id="Path_62" data-name="Path 62" d="M302.154,180.793a22.132,22.132,0,0,1,5.323-1.3,34.236,34.236,0,0,0,1.277-6.571,34.305,34.305,0,0,0-6.24,2.4,22.164,22.164,0,0,1-.359,5.476" transform="translate(-269.325 -167.248)" fill="#018837"/>
                <path id="Path_63" data-name="Path 63" d="M265.8,238.941a34.428,34.428,0,0,0,1.045,6.607,34.433,34.433,0,0,0,5.043-4.39,22.418,22.418,0,0,1-1.532-5.267,22.5,22.5,0,0,1-4.556,3.05" transform="translate(-251.278 -198.515)" fill="#018837"/>
                <path id="Path_64" data-name="Path 64" d="M296.866,171.167a34.662,34.662,0,0,0-1.044-6.607,34.091,34.091,0,0,0-5.043,4.39,22.409,22.409,0,0,1,1.531,5.264,22.449,22.449,0,0,1,4.556-3.048" transform="translate(-263.678 -163.097)" fill="#018837"/>
                <path id="Path_65" data-name="Path 65" d="M277.967,182.249a15.377,15.377,0,0,1,1.662-4.545,22.2,22.2,0,0,0-3.243-4.424,22.368,22.368,0,0,0-1.532,5.265,15.324,15.324,0,0,1,3.113,3.7" transform="translate(-255.771 -167.427)" fill="#73be1e"/>
                <path id="Path_66" data-name="Path 66" d="M286,228.536a15.374,15.374,0,0,1-1.66,4.545,22.226,22.226,0,0,0,3.243,4.426,22.5,22.5,0,0,0,1.531-5.268,15.353,15.353,0,0,1-3.114-3.7" transform="translate(-260.48 -194.863)" fill="#73be1e"/>
                <path id="Path_67" data-name="Path 67" d="M266.129,183.161a15.358,15.358,0,0,1,4.19,2.413,15.4,15.4,0,0,1,.008-4.84,22.4,22.4,0,0,0-4.557-3.045,22.152,22.152,0,0,0,.358,5.472" transform="translate(-251.244 -169.616)" fill="#73be1e"/>
                <path id="Path_68" data-name="Path 68" d="M298.016,228.691a15.351,15.351,0,0,1-4.187-2.409,15.462,15.462,0,0,1-.009,4.838,22.471,22.471,0,0,0,4.556,3.05,22.191,22.191,0,0,0-.359-5.479" transform="translate(-265.188 -193.743)" fill="#73be1e"/>
                <path id="Path_69" data-name="Path 69" d="M262.917,191.823a15.3,15.3,0,0,1-1.648-4.55,22.156,22.156,0,0,0-5.321-1.3,22.47,22.47,0,0,0,2.206,5.02,15.369,15.369,0,0,1,4.764.832" transform="translate(-246.383 -173.728)" fill="#73be1e"/>
                <path id="Path_70" data-name="Path 70" d="M298.884,222.035a15.341,15.341,0,0,1,1.646,4.547,22.2,22.2,0,0,0,5.323,1.307,22.076,22.076,0,0,0-2.208-5.02,15.329,15.329,0,0,1-4.761-.834" transform="translate(-267.702 -191.635)" fill="#73be1e"/>
                <path id="Path_71" data-name="Path 71" d="M253.295,200.5a15.3,15.3,0,0,1,4.76-.847,15.347,15.347,0,0,1-3.1-3.711,22.272,22.272,0,0,0-5.45.6,22.489,22.489,0,0,0,3.793,3.962" transform="translate(-243.183 -178.674)" fill="#73be1e"/>
                <path id="Path_72" data-name="Path 72" d="M306.944,214.635a15.4,15.4,0,0,1-4.759.846,15.275,15.275,0,0,1,3.1,3.713,22.221,22.221,0,0,0,5.452-.6,22.26,22.26,0,0,0-3.791-3.96" transform="translate(-269.341 -187.961)" fill="#73be1e"/>
                <path id="Path_73" data-name="Path 73" d="M256.369,207.422A15.4,15.4,0,0,1,252.188,205a22.232,22.232,0,0,0-4.916,2.426,22.123,22.123,0,0,0,4.916,2.427,15.311,15.311,0,0,1,4.181-2.427" transform="translate(-242.076 -183.175)" fill="#73be1e"/>
                <path id="Path_74" data-name="Path 74" d="M303.328,207.422a15.269,15.269,0,0,1,4.184,2.427,22.154,22.154,0,0,0,4.913-2.427A22.264,22.264,0,0,0,307.512,205a15.356,15.356,0,0,1-4.184,2.426" transform="translate(-269.908 -183.175)" fill="#73be1e"/>
                <path id="Path_75" data-name="Path 75" d="M254.953,219.195a15.306,15.306,0,0,1,3.1-3.713,15.333,15.333,0,0,1-4.759-.846,22.411,22.411,0,0,0-3.793,3.96,22.284,22.284,0,0,0,5.45.6" transform="translate(-243.183 -187.961)" fill="#73be1e"/>
                <path id="Path_76" data-name="Path 76" d="M305.284,195.937a15.285,15.285,0,0,1-3.1,3.711,15.323,15.323,0,0,1,4.759.848,22.35,22.35,0,0,0,3.791-3.962,22.241,22.241,0,0,0-5.451-.6" transform="translate(-269.341 -178.674)" fill="#73be1e"/>
                <path id="Path_77" data-name="Path 77" d="M262.917,222.035a15.343,15.343,0,0,1-4.764.834,22.447,22.447,0,0,0-2.206,5.02,22.244,22.244,0,0,0,5.321-1.307,15.289,15.289,0,0,1,1.648-4.547" transform="translate(-246.383 -191.635)" fill="#73be1e"/>
                <path id="Path_78" data-name="Path 78" d="M298.884,191.823a15.356,15.356,0,0,1,4.761-.832,22.1,22.1,0,0,0,2.208-5.02,22.131,22.131,0,0,0-5.323,1.3,15.353,15.353,0,0,1-1.646,4.55" transform="translate(-267.702 -173.728)" fill="#73be1e"/>
                <path id="Path_79" data-name="Path 79" d="M277.967,228.536a15.316,15.316,0,0,1-3.113,3.7,22.421,22.421,0,0,0,1.532,5.268,22.328,22.328,0,0,0,3.243-4.426,15.39,15.39,0,0,1-1.662-4.545" transform="translate(-255.771 -194.863)" fill="#73be1e"/>
                <path id="Path_80" data-name="Path 80" d="M270.32,226.282a15.383,15.383,0,0,1-4.19,2.409,22.214,22.214,0,0,0-.358,5.479,22.5,22.5,0,0,0,4.556-3.05,15.4,15.4,0,0,1-.008-4.838" transform="translate(-251.244 -193.743)" fill="#73be1e"/>
                <path id="Path_81" data-name="Path 81" d="M286,182.249a15.322,15.322,0,0,1,3.114-3.7,22.392,22.392,0,0,0-1.531-5.265,22.1,22.1,0,0,0-3.243,4.424,15.362,15.362,0,0,1,1.66,4.545" transform="translate(-260.48 -167.427)" fill="#73be1e"/>
                <path id="Path_82" data-name="Path 82" d="M293.829,185.57a15.327,15.327,0,0,1,4.187-2.413,22.183,22.183,0,0,0,.359-5.475,22.459,22.459,0,0,0-4.556,3.049,15.441,15.441,0,0,1,.01,4.839" transform="translate(-265.187 -169.613)" fill="#73be1e"/>
                <path id="Path_83" data-name="Path 83" d="M273.249,195.974a13.043,13.043,0,0,0-3.127-3.745,13.118,13.118,0,0,0,1.675,4.582,13.092,13.092,0,0,0-4.217-2.445,12.993,12.993,0,0,0,3.139,3.733,13.014,13.014,0,0,0-4.8-.854,13.052,13.052,0,0,0,4.225,2.433,13.069,13.069,0,0,0-4.8.84,13.079,13.079,0,0,0,4.8.839,13.071,13.071,0,0,0-4.225,2.434,13.014,13.014,0,0,0,4.8-.854,12.994,12.994,0,0,0-3.139,3.734,13.14,13.14,0,0,0,4.217-2.445,13.114,13.114,0,0,0-1.675,4.584,13.075,13.075,0,0,0,3.127-3.743,13.158,13.158,0,0,0-.006,4.878,13.149,13.149,0,0,0,1.661-4.586,13.158,13.158,0,0,0,1.66,4.586,13.106,13.106,0,0,0-.007-4.878,13.138,13.138,0,0,0,3.129,3.743,13.11,13.11,0,0,0-1.677-4.584,13.182,13.182,0,0,0,4.218,2.445,13.028,13.028,0,0,0-3.137-3.734,13.006,13.006,0,0,0,4.8.854,13.172,13.172,0,0,0-4.226-2.436,13,13,0,0,0,4.8-.837,13.044,13.044,0,0,0-4.8-.84,13.1,13.1,0,0,0,4.226-2.433,13.031,13.031,0,0,0-4.8.854,12.99,12.99,0,0,0,3.14-3.733,13.165,13.165,0,0,0-4.218,2.446,13.126,13.126,0,0,0,1.677-4.583,13.106,13.106,0,0,0-3.129,3.745,13.119,13.119,0,0,0,.007-4.88,13.119,13.119,0,0,0-1.66,4.587,13.11,13.11,0,0,0-1.661-4.587,13.17,13.17,0,0,0,.006,4.88" transform="translate(-251.047 -176.272)" fill="#fff"/>
                <path id="Path_84" data-name="Path 84" d="M277.781,192.321a13.171,13.171,0,0,1-.006-4.88,15.338,15.338,0,0,0-3.114-3.7,15.415,15.415,0,0,0-.008,4.84,13.042,13.042,0,0,1,3.127,3.745" transform="translate(-255.578 -172.619)" fill="#ffe001"/>
                <path id="Path_85" data-name="Path 85" d="M287.621,218.848a13.106,13.106,0,0,1,.008,4.878,15.36,15.36,0,0,0,3.113,3.7,15.447,15.447,0,0,0,.009-4.838,13.139,13.139,0,0,1-3.13-3.743" transform="translate(-262.11 -190.052)" fill="#ffe001"/>
                <path id="Path_86" data-name="Path 86" d="M270.706,190.97a15.345,15.345,0,0,0-4.19-2.413,15.33,15.33,0,0,0,1.648,4.55,13.092,13.092,0,0,1,4.217,2.445,13.121,13.121,0,0,1-1.675-4.582" transform="translate(-251.631 -175.012)" fill="#ffe001"/>
                <path id="Path_87" data-name="Path 87" d="M292.184,221.762a15.365,15.365,0,0,0,4.187,2.409,15.34,15.34,0,0,0-1.647-4.547,13.163,13.163,0,0,1-4.218-2.445,13.129,13.129,0,0,1,1.678,4.584" transform="translate(-263.542 -189.223)" fill="#ffe001"/>
                <path id="Path_88" data-name="Path 88" d="M268.231,200.507a12.972,12.972,0,0,1-3.139-3.733,15.37,15.37,0,0,0-4.764-.832,15.331,15.331,0,0,0,3.1,3.711,13.035,13.035,0,0,1,4.8.854" transform="translate(-248.558 -178.679)" fill="#ffe001"/>
                <path id="Path_89" data-name="Path 89" d="M292.652,214.619a13.022,13.022,0,0,1,3.137,3.734,15.335,15.335,0,0,0,4.761.834,15.256,15.256,0,0,0-3.1-3.713,13.005,13.005,0,0,1-4.8-.854" transform="translate(-264.608 -187.953)" fill="#ffe001"/>
                <path id="Path_90" data-name="Path 90" d="M266.021,205.746a13.039,13.039,0,0,1-4.226-2.433,15.279,15.279,0,0,0-4.76.848,15.4,15.4,0,0,0,4.181,2.426,13.069,13.069,0,0,1,4.8-.84" transform="translate(-246.923 -182.339)" fill="#ffe001"/>
                <path id="Path_91" data-name="Path 91" d="M293.792,210.651a13.182,13.182,0,0,1,4.225,2.436,15.381,15.381,0,0,0,4.76-.846,15.275,15.275,0,0,0-4.184-2.427,12.991,12.991,0,0,1-4.8.837" transform="translate(-265.174 -185.567)" fill="#ffe001"/>
                <path id="Path_92" data-name="Path 92" d="M261.217,209.815a15.31,15.31,0,0,0-4.181,2.427,15.333,15.333,0,0,0,4.759.846,13.075,13.075,0,0,1,4.225-2.434,13.079,13.079,0,0,1-4.8-.839" transform="translate(-246.924 -185.567)" fill="#ffe001"/>
                <path id="Path_93" data-name="Path 93" d="M298.593,206.587a15.356,15.356,0,0,0,4.184-2.426,15.305,15.305,0,0,0-4.759-.847,13.108,13.108,0,0,1-4.226,2.433,13.055,13.055,0,0,1,4.8.84" transform="translate(-265.173 -182.339)" fill="#ffe001"/>
                <path id="Path_94" data-name="Path 94" d="M268.231,214.619a13.015,13.015,0,0,1-4.8.854,15.3,15.3,0,0,0-3.1,3.713,15.343,15.343,0,0,0,4.764-.834,12.974,12.974,0,0,1,3.139-3.734" transform="translate(-248.558 -187.953)" fill="#ffe001"/>
                <path id="Path_95" data-name="Path 95" d="M292.646,200.507a13.052,13.052,0,0,1,4.8-.854,15.3,15.3,0,0,0,3.1-3.711,15.36,15.36,0,0,0-4.761.832,12.984,12.984,0,0,1-3.14,3.733" transform="translate(-264.605 -178.679)" fill="#ffe001"/>
                <path id="Path_96" data-name="Path 96" d="M281.037,224.013a15.391,15.391,0,0,0,1.662,4.545,15.388,15.388,0,0,0,1.661-4.545,13.144,13.144,0,0,1-1.661-4.587,13.134,13.134,0,0,1-1.662,4.587" transform="translate(-258.84 -190.339)" fill="#ffe001"/>
                <path id="Path_97" data-name="Path 97" d="M277.781,218.848a13.074,13.074,0,0,1-3.127,3.743,15.4,15.4,0,0,0,.008,4.838,15.34,15.34,0,0,0,3.114-3.7,13.158,13.158,0,0,1,.006-4.878" transform="translate(-255.578 -190.052)" fill="#ffe001"/>
                <path id="Path_98" data-name="Path 98" d="M268.164,219.623a15.289,15.289,0,0,0-1.648,4.547,15.383,15.383,0,0,0,4.19-2.409,13.136,13.136,0,0,1,1.674-4.584,13.124,13.124,0,0,1-4.216,2.445" transform="translate(-251.631 -189.223)" fill="#ffe001"/>
                <path id="Path_99" data-name="Path 99" d="M284.359,186.611a15.361,15.361,0,0,0-1.66-4.545,15.379,15.379,0,0,0-1.662,4.545A13.124,13.124,0,0,1,282.7,191.2a13.124,13.124,0,0,1,1.66-4.587" transform="translate(-258.84 -171.789)" fill="#ffe001"/>
                <path id="Path_100" data-name="Path 100" d="M287.621,192.321a13.107,13.107,0,0,1,3.13-3.745,15.46,15.46,0,0,0-.009-4.84,15.31,15.31,0,0,0-3.113,3.7,13.119,13.119,0,0,1-.008,4.88" transform="translate(-262.11 -172.619)" fill="#ffe001"/>
                <path id="Path_101" data-name="Path 101" d="M294.724,193.107a15.352,15.352,0,0,0,1.646-4.55,15.327,15.327,0,0,0-4.187,2.413,13.151,13.151,0,0,1-1.678,4.583,13.142,13.142,0,0,1,4.218-2.446" transform="translate(-263.542 -175.012)" fill="#ffe001"/>
              </g>
            </g>
          </g>
        </g>
      </g>
      <path id="Path_102" data-name="Path 102" d="M140.459,164.561a22.785,22.785,0,1,0,22.716,22.785,22.751,22.751,0,0,0-22.716-22.785" transform="translate(-117.743 -163.098)" fill="#018837"/>
      <path id="Path_103" data-name="Path 103" d="M157.246,203.369a2.98,2.98,0,1,1,2.823-2.963,2.816,2.816,0,0,1-2.823,2.963m.052-9.78c-4.288,0-7.137,2.727-7.137,6.791,0,4.169,2.744,6.844,7.058,6.844,4.287,0,7.111-2.675,7.111-6.818,0-4.09-2.8-6.817-7.032-6.817m-11.047-5.952a2.34,2.34,0,0,0-2.64,2.36c0,1.468,1.045,2.385,2.718,2.385A2.345,2.345,0,0,0,148.97,190c0-1.469-1.046-2.36-2.719-2.36m.287,6.083h-.523c-1.281,0-2.249.6-2.249,2.438v8.391c0,1.862.941,2.439,2.3,2.439h.523c1.281,0,2.2-.63,2.2-2.439v-8.391c0-1.888-.889-2.438-2.249-2.438m-6.844-3.96h-.758c-1.437,0-2.222.813-2.222,2.439v7.84c0,2.018-.68,2.727-2.275,2.727a3.846,3.846,0,0,1-3.085-1.547,2.622,2.622,0,0,0-1.725,2.622c0,2.1,1.961,3.382,5.594,3.382,4.418,0,6.745-2.229,6.745-7.106V192.2c0-1.626-.784-2.439-2.274-2.439" transform="translate(-123.645 -174.556)" fill="#fff"/>
      <path id="Path_104" data-name="Path 104" d="M221.672,164.561V210.13h.791V164.561Z" transform="translate(-169.346 -163.098)" fill="#018837"/>
    </g>
    <g id="Group_19" data-name="Group 19" transform="translate(208.184 131.998)">
      <path id="Path_105" data-name="Path 105" d="M303.763,139.379c0,1.382-.489,3.287-2.443,3.287-2.361,0-2.361-2.646-2.361-3.2,0-.539,0-3.371,2.426-3.371C303.6,136.092,303.763,138.537,303.763,139.379ZM298.993,132H297.41v10.179l-.035,1.516h1.531l.035-1.28a2.717,2.717,0,0,0,.828.859,3.344,3.344,0,0,0,1.886.539,3.58,3.58,0,0,0,2.97-1.449,4.884,4.884,0,0,0,.807-3.085,4.453,4.453,0,0,0-.993-3.186,3.464,3.464,0,0,0-2.682-1.079,2.827,2.827,0,0,0-2.764,1.45Z" transform="translate(-297.375 -131.998)" fill="#018837"/>
      <path id="Path_106" data-name="Path 106" d="M317.254,142.773c0-.759,0-3.439,2.529-3.439,1.87,0,2.327,1.584,2.327,3.1a4.738,4.738,0,0,1-.691,2.646,2.158,2.158,0,0,1-1.786.826C317.407,145.909,317.254,143.8,317.254,142.773ZM315.739,150h1.567v-4.2a2.925,2.925,0,0,0,2.6,1.264c2.023,0,3.858-1.382,3.858-4.534,0-3.135-1.733-4.382-3.553-4.382a3.29,3.29,0,0,0-2.884,1.534l-.034-1.4h-1.6c.034.809.051,1.011.051,1.382Z" transform="translate(-306.468 -135.055)" fill="#018837"/>
    </g>
  </g>
</svg>
